<svg width="37" height="37" viewBox="0 0 37 37" fill="none" xmlns="http://www.w3.org/2000/svg">
<g id="buy-inactive">
<g id="Buy">
<path id="Buy_2" fill-rule="evenodd" clip-rule="evenodd" d="M32.8723 10.3871C32.2825 9.69117 31.4252 9.29091 30.5234 9.29091H14.5596C13.9445 9.29091 13.4453 9.80033 13.4453 10.428C13.4453 11.0557 13.9445 11.5651 14.5596 11.5651H30.5234C30.8725 11.5651 31.0895 11.7592 31.1875 11.8744C31.2856 11.9911 31.4431 12.2383 31.3925 12.59L29.9826 22.5344C29.8712 23.3137 29.2056 23.9019 28.433 23.9019H12.2226C11.401 23.9019 10.7309 23.2727 10.6626 22.4388L9.23188 5.04573C9.19028 4.53024 8.81143 4.10724 8.31224 4.0193L5.2205 3.47198C4.60691 3.37191 4.0364 3.77975 3.9324 4.39985C3.8284 5.01843 4.234 5.6067 4.84016 5.71434L7.08356 6.11005L8.44149 22.6284C8.60789 24.6509 10.2332 26.1761 12.2226 26.1761H28.433C30.3065 26.1761 31.92 24.751 32.1874 22.8603L33.5988 12.916C33.7281 12.0033 33.4621 11.083 32.8723 10.3871ZM9.7223 30.8762C9.7223 29.6102 10.7326 28.5792 11.9731 28.5792C13.2137 28.5792 14.2225 29.6102 14.2225 30.8762C14.2225 32.1421 13.2137 33.1716 11.9731 33.1716C10.7326 33.1716 9.7223 32.1421 9.7223 30.8762ZM26.4408 30.8762C26.4408 29.6102 27.4496 28.5792 28.6902 28.5792C29.9307 28.5792 30.941 29.6102 30.941 30.8762C30.941 32.1421 29.9307 33.1716 28.6902 33.1716C27.4496 33.1716 26.4408 32.1421 26.4408 30.8762ZM27.166 16.0326C27.166 16.6603 26.6668 17.1697 26.0517 17.1697H21.9319C21.3153 17.1697 20.8176 16.6603 20.8176 16.0326C20.8176 15.4049 21.3153 14.8955 21.9319 14.8955H26.0517C26.6668 14.8955 27.166 15.4049 27.166 16.0326Z" fill="#191E2C"/>
</g>
</g>
</svg>
