<svg width="36" height="37" viewBox="0 0 36 37" fill="none" xmlns="http://www.w3.org/2000/svg">
<g id="Iconly/Broken/Buy">
<g id="Buy">
<path id="Buy_2" fill-rule="evenodd" clip-rule="evenodd" d="M32.0967 10.4358C31.5068 9.73993 30.6496 9.33967 29.7478 9.33967H13.784C13.1689 9.33967 12.6697 9.84909 12.6697 10.4768C12.6697 11.1045 13.1689 11.6139 13.784 11.6139H29.7478C30.0969 11.6139 30.3138 11.8079 30.4119 11.9232C30.5099 12.0399 30.6674 12.287 30.6169 12.6388L29.207 22.5831C29.0956 23.3624 28.43 23.9507 27.6574 23.9507H11.447C10.6254 23.9507 9.95532 23.3215 9.88697 22.4876L8.45625 5.09448C8.41465 4.579 8.03579 4.156 7.5366 4.06806L4.44487 3.52073C3.83127 3.42067 3.26076 3.82851 3.15677 4.44861C3.05277 5.06719 3.45836 5.65546 4.06453 5.7631L6.30793 6.15881L7.66586 22.6771C7.83225 24.6997 9.45761 26.2249 11.447 26.2249H27.6574C29.5309 26.2249 31.1443 24.7997 31.4118 22.9091L32.8232 12.9648C32.9524 12.052 32.6865 11.1317 32.0967 10.4358ZM8.94668 30.9249C8.94668 29.6589 9.95695 28.628 11.1975 28.628C12.4381 28.628 13.4469 29.6589 13.4469 30.9249C13.4469 32.1909 12.4381 33.2203 11.1975 33.2203C9.95695 33.2203 8.94668 32.1909 8.94668 30.9249ZM25.6652 30.9249C25.6652 29.6589 26.674 28.628 27.9146 28.628C29.1551 28.628 30.1654 29.6589 30.1654 30.9249C30.1654 32.1909 29.1551 33.2203 27.9146 33.2203C26.674 33.2203 25.6652 32.1909 25.6652 30.9249ZM26.3904 16.0813C26.3904 16.709 25.8912 17.2184 25.2761 17.2184H21.1563C20.5397 17.2184 20.042 16.709 20.042 16.0813C20.042 15.4537 20.5397 14.9442 21.1563 14.9442H25.2761C25.8912 14.9442 26.3904 15.4537 26.3904 16.0813Z" fill="#FE9B21"/>
</g>
</g>
</svg>
