<svg xmlns="http://www.w3.org/2000/svg" width="66.377" height="59.334" viewBox="0 0 66.377 59.334"><defs><style>.a{fill:#cdbdb2;}.a,.b,.c,.d,.e,.f,.g,.h,.i,.j,.k,.l{fill-rule:evenodd;}.b{fill:#393939;}.c{fill:#f89c35;}.d{fill:#f89d35;}.e{fill:#d87c30;}.f{fill:#ea8d3a;}.g{fill:#eb8f35;}.h{fill:#ea8e3a;}.i{fill:#e8821e;}.j{fill:#dfcec3;}.k{fill:#e88f35;}.l{fill:#8e5a30;}</style></defs><g transform="translate(0 0)"><g transform="translate(0 0)"><path class="a" d="M114.623,320.118l8.7,2.309v-3.02l.71-.711H129v6.04h-5.324l-6.567-2.842Z" transform="translate(-95.633 -265.581)"/><path class="a" d="M0,4.619,8.519,2.309v3.02l.71.711H14.2V0H8.874L2.307,2.842Z" transform="translate(47.386 59.156) rotate(180)"/><path class="b" d="M167.338,283.467l-.71,5.862.887-.711h9.229l1.065.711-.71-5.862-1.42-.888-7.1.178Z" transform="translate(-138.941 -235.502)"/><path class="c" d="M142.217,50.992l4.259,9.948L148.429,89.9h6.922l2.13-28.956,3.9-9.948Z" transform="translate(-118.613 -42.642)"/><path class="d" d="M6.031,155.117,1.061,169.506l12.423-.711h7.986v-6.218l-.355-12.79-1.775,1.421Z" transform="translate(-1.061 -124.917)"/><path class="e" d="M87.028,191.218l14.553.355-1.6,7.461-6.922-1.776Z" transform="translate(-72.653 -159.42)"/><path class="f" d="M87.028,192.28l6.034,5.685v5.685Z" transform="translate(-72.653 -160.304)"/><path class="d" d="M123.113,227.337l7.1,1.776,2.307,7.639-1.6.888-7.809-4.619Z" transform="translate(-102.703 -189.499)"/><path class="g" d="M116.042,261.331l-1.42,11.014,9.406-6.573Z" transform="translate(-95.632 -217.808)"/><path class="h" d="M165.219,193.343l.887,15.1-2.662-7.728Z" transform="translate(-136.29 -161.189)"/><path class="e" d="M74.293,261.509l8.164-.178-1.42,11.014Z" transform="translate(-62.047 -217.809)"/><path class="g" d="M4.966,278.026l15.086-4.8-6.744-10.836-12.246.888Z" transform="translate(-1.061 -218.693)"/><path class="i" d="M100.517,110.482l-7.632,6.4-5.857,7.106,14.553.533Z" transform="translate(-72.653 -92.185)"/><path class="j" d="M114.623,294.462l9.406-6.573-.71,5.685v3.2l-6.389-1.243Z" transform="translate(-95.633 -239.925)"/><path class="j" d="M0,2.309,9.229,8.882,8.519,3.2V0L2.13,1.244Z" transform="translate(47.386 56.846) rotate(180)"/><path class="b" d="M1.952,4.086,0,0,6.922,1.776Z" transform="translate(26.977 39.437) rotate(180)"/><path class="k" d="M23.349,1.062l24.137,18.3L43.4,9.412Z" transform="translate(-19.622 -1.062)"/><path class="l" d="M7.44,1.062l-3.195,9.77L6.02,21.491,4.778,22.2l1.775,1.6-1.42,1.244,1.952,1.776L5.843,27.887l2.84,3.553,13.311-4.086q9.761-7.816,9.584-7.994T7.44,1.062Z" transform="translate(-3.713 -1.062)"/><g transform="translate(66.376 59.333) rotate(180)"><path class="d" d="M4.969,14.389,0,0,12.423.711H20.41V6.928l-.355,12.79L18.28,18.3Z" transform="translate(0 14.745)"/><path class="e" d="M0,7.816l14.553-.355L12.956,0,6.034,1.776Z" transform="translate(14.376 19.719)"/><path class="f" d="M0,11.369,6.034,5.685V0Z" transform="translate(14.376 15.988)"/><path class="d" d="M0,10.3,7.1,8.527,9.406.888,7.809,0,0,4.619Z" transform="translate(20.41 11.192)"/><path class="g" d="M1.42,11.014,0,0,9.229,6.4Z" transform="translate(18.99 4.796)"/><path class="h" d="M1.775,15.1,2.662,0,0,7.728Z" transform="translate(27.154 12.08)"/><path class="e" d="M0,10.836l8.164.178L6.744,0Z" transform="translate(12.246 4.796)"/><path class="g" d="M3.9,0,18.99,4.8,12.246,15.633,0,14.745Z" transform="translate(0)"/><path class="i" d="M13.488,14.034l-7.632-6.4L0,.533,14.553,0Z" transform="translate(14.376 27.002)"/><path class="b" d="M1.952,0,0,4.086,6.922,2.309Z" transform="translate(26.977 23.982) rotate(180)"/><path class="k" d="M0,18.3,24.137,0,20.055,9.948Z" transform="translate(3.727 41.036)"/><path class="l" d="M3.195,30.377,0,20.607,1.775,9.948.532,9.238l1.775-1.6L.887,6.4,2.84,4.619,1.6,3.553,4.437,0,17.748,4.086q9.761,7.816,9.584,7.994T3.195,30.377Z" transform="translate(0.532 28.956)"/></g></g><g transform="translate(0 0)"><path class="a" d="M114.623,320.118l8.7,2.309v-3.02l.71-.711H129v6.04h-5.324l-6.567-2.842Z" transform="translate(-95.633 -265.581)"/><path class="a" d="M0,4.619,8.519,2.309v3.02l.71.711H14.2V0H8.874L2.307,2.842Z" transform="translate(47.386 59.156) rotate(180)"/><path class="b" d="M167.338,283.467l-.71,5.862.887-.711h9.229l1.065.711-.71-5.862-1.42-.888-7.1.178Z" transform="translate(-138.941 -235.502)"/><path class="c" d="M142.217,50.992l4.259,9.948L148.429,89.9h6.922l2.13-28.956,3.9-9.948Z" transform="translate(-118.613 -42.642)"/><path class="d" d="M6.031,155.117,1.061,169.506l12.423-.711h7.986v-6.218l-.355-12.79-1.775,1.421Z" transform="translate(-1.061 -124.917)"/><path class="e" d="M87.028,191.218l14.553.355-1.6,7.461-6.922-1.776Z" transform="translate(-72.653 -159.42)"/><path class="f" d="M87.028,192.28l6.034,5.685v5.685Z" transform="translate(-72.653 -160.304)"/><path class="d" d="M123.113,227.337l7.1,1.776,2.307,7.639-1.6.888-7.809-4.619Z" transform="translate(-102.703 -189.499)"/><path class="g" d="M116.042,261.331l-1.42,11.014,9.406-6.573Z" transform="translate(-95.632 -217.808)"/><path class="h" d="M165.219,193.343l.887,15.1-2.662-7.728Z" transform="translate(-136.29 -161.189)"/><path class="e" d="M74.293,261.509l8.164-.178-1.42,11.014Z" transform="translate(-62.047 -217.809)"/><path class="g" d="M4.966,278.026l15.086-4.8-6.744-10.836-12.246.888Z" transform="translate(-1.061 -218.693)"/><path class="i" d="M100.517,110.482l-7.632,6.4-5.857,7.106,14.553.533Z" transform="translate(-72.653 -92.185)"/><path class="j" d="M114.623,294.462l9.406-6.573-.71,5.685v3.2l-6.389-1.243Z" transform="translate(-95.633 -239.925)"/><path class="j" d="M0,2.309,9.229,8.882,8.519,3.2V0L2.13,1.244Z" transform="translate(47.386 56.846) rotate(180)"/><path class="b" d="M1.952,4.086,0,0,6.922,1.776Z" transform="translate(26.977 39.437) rotate(180)"/><path class="k" d="M23.349,1.062l24.137,18.3L43.4,9.412Z" transform="translate(-19.622 -1.062)"/><path class="l" d="M7.44,1.062l-3.195,9.77L6.02,21.491,4.778,22.2l1.775,1.6-1.42,1.244,1.952,1.776L5.843,27.887l2.84,3.553,13.311-4.086q9.761-7.816,9.584-7.994T7.44,1.062Z" transform="translate(-3.713 -1.062)"/><g transform="translate(66.376 59.333) rotate(180)"><path class="d" d="M4.969,14.389,0,0,12.423.711H20.41V6.928l-.355,12.79L18.28,18.3Z" transform="translate(0 14.745)"/><path class="e" d="M0,7.816l14.553-.355L12.956,0,6.034,1.776Z" transform="translate(14.376 19.719)"/><path class="f" d="M0,11.369,6.034,5.685V0Z" transform="translate(14.376 15.988)"/><path class="d" d="M0,10.3,7.1,8.527,9.406.888,7.809,0,0,4.619Z" transform="translate(20.41 11.192)"/><path class="g" d="M1.42,11.014,0,0,9.229,6.4Z" transform="translate(18.99 4.796)"/><path class="h" d="M1.775,15.1,2.662,0,0,7.728Z" transform="translate(27.154 12.08)"/><path class="e" d="M0,10.836l8.164.178L6.744,0Z" transform="translate(12.246 4.796)"/><path class="g" d="M3.9,0,18.99,4.8,12.246,15.633,0,14.745Z" transform="translate(0)"/><path class="i" d="M13.488,14.034l-7.632-6.4L0,.533,14.553,0Z" transform="translate(14.376 27.002)"/><path class="b" d="M1.952,0,0,4.086,6.922,2.309Z" transform="translate(26.977 23.982) rotate(180)"/><path class="k" d="M0,18.3,24.137,0,20.055,9.948Z" transform="translate(3.727 41.036)"/><path class="l" d="M3.195,30.377,0,20.607,1.775,9.948.532,9.238l1.775-1.6L.887,6.4,2.84,4.619,1.6,3.553,4.437,0,17.748,4.086q9.761,7.816,9.584,7.994T3.195,30.377Z" transform="translate(0.532 28.956)"/></g></g></g></svg>