<svg xmlns="http://www.w3.org/2000/svg" width="30" height="30" viewBox="0 0 30 30"><defs><style>.a{fill:#a18b3c;}.b{fill:#fff;}</style></defs><g transform="translate(-1400 -1990)"><g transform="translate(1400 1990)"><path class="a" d="M2557.574-217.3v15.878l4.59,4.577h15.789v-15.918l-4.6-4.536Z" transform="translate(-2552.764 222.07)"/><path class="a" d="M2571.9-227.8h-24.824v23.238l5.165,6.762h24.835v-23.3Zm4.717,29.546h-24.149l-4.934-6.46v-22.631h24.14l4.944,6.4Z" transform="translate(-2547.074 227.797)"/></g></g><path class="b" d="M156.282,154.466l4.216-4.249a.47.47,0,0,0,0-.681l-.649-.681a.47.47,0,0,0-.681,0L154.92,153.1a.314.314,0,0,1-.454,0l-4.249-4.281a.47.47,0,0,0-.681,0l-.681.681a.47.47,0,0,0,0,.681l4.249,4.249a.314.314,0,0,1,0,.454l-4.281,4.281a.47.47,0,0,0,0,.681l.681.681a.47.47,0,0,0,.681,0l4.249-4.249a.313.313,0,0,1,.454,0l4.249,4.249a.47.47,0,0,0,.681,0l.681-.681a.47.47,0,0,0,0-.681l-4.216-4.249A.313.313,0,0,1,156.282,154.466Z" transform="translate(-139.677 -139.676)"/></svg>