<svg width="20" height="18" viewBox="0 0 20 18" fill="none" xmlns="http://www.w3.org/2000/svg">
<path fill-rule="evenodd" clip-rule="evenodd" d="M8.76889 11.8314C10.1531 11.1406 11.1083 9.71391 11.1083 8.06443C11.1083 5.74241 9.21907 3.85336 6.89726 3.85336C4.57545 3.85336 2.6862 5.74262 2.6862 8.06443C2.6862 9.71368 3.64138 11.1406 5.02563 11.8314C0.636366 12.8662 0.350029 17.4641 0.347412 17.5166L0.999282 17.549C1.01038 17.3338 1.3374 12.2759 6.89704 12.2759C12.4567 12.2759 12.7837 17.3338 12.7948 17.549L13.4467 17.5166C13.444 17.4641 13.1577 12.8662 8.76889 11.8314ZM3.33872 8.06462C3.33872 6.10248 4.93489 4.5063 6.89704 4.5063C8.85918 4.5063 10.4554 6.10248 10.4554 8.06462C10.4554 10.0268 8.85918 11.6232 6.89704 11.6232C4.93489 11.6232 3.33872 10.0268 3.33872 8.06462Z" fill="#27DB92"/>
<path d="M14.3722 8.82154C15.7564 8.13073 16.7116 6.70405 16.7116 5.05457C16.7116 2.73254 14.8224 0.843506 12.5006 0.843506C10.6875 0.843506 9.14286 1.99756 8.55103 3.60787C8.76273 3.66597 8.96792 3.73885 9.16482 3.82763C9.66636 2.46927 10.9701 1.49646 12.5006 1.49646C14.4627 1.49646 16.0589 3.09264 16.0589 5.05478C16.0589 7.01693 14.4627 8.61332 12.5006 8.61332C12.1781 8.61332 11.867 8.56632 11.5697 8.4856C11.5095 8.78912 11.4842 8.95992 11.3661 9.34656C11.7388 9.28955 12.0663 9.26605 12.5006 9.26605C18.0602 9.26605 18.3872 14.3239 18.3983 14.5391L19.0502 14.5067C19.0476 14.4543 18.7612 9.85635 14.3722 8.82153L14.3722 8.82154Z" fill="#27DB92"/>
</svg>
