<svg width="19" height="20" viewBox="0 0 19 20" fill="none" xmlns="http://www.w3.org/2000/svg">
<mask id="mask0" mask-type="alpha" maskUnits="userSpaceOnUse" x="0" y="0" width="19" height="20">
<rect x="0.234741" y="0.675095" width="18.695" height="18.695" rx="2.33687" fill="black"/>
</mask>
<g mask="url(#mask0)">
<path fill-rule="evenodd" clip-rule="evenodd" d="M5.47257 5.35451C7.51236 3.38521 10.5735 2.98204 13.0315 4.26336L12.461 5.2561L15.5004 4.76117L14.401 1.88092L13.8077 2.91312C10.7554 1.29157 6.93408 1.78672 4.39472 4.23832C1.61908 6.91865 1.12482 11.2126 3.21934 14.4483L4.52194 13.605C2.82925 10.9907 3.22931 7.52086 5.47256 5.35451H5.47257ZM16.8101 5.66788L15.5075 6.51123C17.1999 9.12551 16.7999 12.5953 14.5562 14.7619C12.5235 16.7246 9.47679 17.1315 7.02253 15.8655L7.64113 14.7896L4.60174 15.285L5.7011 18.1648L6.24856 17.2122C7.42792 17.8339 8.71877 18.1451 10.0076 18.1451C12.0499 18.1451 14.0819 17.3766 15.6343 15.8779C18.4099 13.1971 18.9044 8.9032 16.8101 5.66786L16.8101 5.66788Z" fill="#9B27BD"/>
</g>
</svg>
