<svg class="svg-icon" style="width: 1em; height: 1em;vertical-align: middle;fill: currentColor;overflow: hidden;" viewBox="0 0 1024 1024" version="1.1" xmlns="http://www.w3.org/2000/svg"><path d="M768.5 592.5m-32 0a32 32 0 1 0 64 0 32 32 0 1 0-64 0Z" fill="#1037AC" /><path d="M112.5 264.5C55.2 264.5 8.5 217.8 8.5 160.5S55.2 56.5 112.5 56.5h640c13.3 0 24 10.7 24 24v64c0 13.3-10.7 24-24 24s-24-10.7-24-24v-40H112.5c-30.9 0-56 25.1-56 56s25.1 56 56 56c13.3 0 24 10.7 24 24s-10.7 24-24 24z" fill="#1037AC" /><path d="M928.5 968.5H160.5C76.7 968.5 8.5 900.3 8.5 816.5V160.5c0-13.3 10.7-24 24-24s24 10.7 24 24c0 30.9 25.1 56 56 56h816c13.3 0 24 10.7 24 24v256c0 13.3-10.7 24-24 24s-24-10.7-24-24V264.5H112.5c-20.6 0-39.8-6-56-16.4V816.5c0 57.3 46.7 104 104 104h744V688.5c0-13.3 10.7-24 24-24s24 10.7 24 24v256c0 13.3-10.7 24-24 24z" fill="#1037AC" /><path d="M992.5 712.5H768.5c-66.2 0-120-53.8-120-120s53.8-120 120-120h224c13.3 0 24 10.7 24 24v192c0 13.3-10.7 24-24 24zM768.5 520.5c-39.7 0-72 32.3-72 72s32.3 72 72 72h200V520.5H768.5z" fill="#7A7EF5" /></svg>