<?xml version="1.0" encoding="UTF-8"?>
<svg xmlns="http://www.w3.org/2000/svg" xmlns:xlink="http://www.w3.org/1999/xlink" width="59px" height="59px" viewBox="0 0 59 59" version="1.1">
<defs>
<radialGradient id="radial0" gradientUnits="userSpaceOnUse" cx="0" cy="0.5" fx="0" fy="0.5" r="1" gradientTransform="matrix(59,0,0,59,0,0)">
<stop offset="0" style="stop-color:rgb(36.470588%,61.568627%,96.470588%);stop-opacity:1;"/>
<stop offset="1" style="stop-color:rgb(0%,43.529412%,100%);stop-opacity:1;"/>
</radialGradient>
</defs>
<g id="surface1">
<path style=" stroke:none;fill-rule:evenodd;fill:url(#radial0);" d="M 29.5 0 C 45.792969 0 59 13.207031 59 29.5 C 59 45.792969 45.792969 59 29.5 59 C 13.207031 59 0 45.792969 0 29.5 C 0 13.207031 13.207031 0 29.5 0 Z M 29.5 0 "/>
<path style=" stroke:none;fill-rule:nonzero;fill:rgb(100%,100%,100%);fill-opacity:1;" d="M 19.5 21.265625 C 25.023438 15.855469 33.976562 15.855469 39.5 21.265625 L 40.167969 21.914062 C 40.441406 22.1875 40.441406 22.625 40.167969 22.894531 L 37.890625 25.121094 C 37.753906 25.257812 37.53125 25.257812 37.390625 25.121094 L 36.476562 24.226562 C 32.625 20.453125 26.375 20.453125 22.523438 24.226562 L 21.542969 25.183594 C 21.40625 25.320312 21.179688 25.320312 21.042969 25.183594 L 18.769531 22.957031 C 18.492188 22.6875 18.492188 22.25 18.769531 21.980469 Z M 44.203125 25.867188 L 46.226562 27.851562 C 46.503906 28.121094 46.503906 28.558594 46.226562 28.828125 L 37.101562 37.765625 C 36.824219 38.035156 36.378906 38.035156 36.101562 37.765625 L 29.625 31.421875 C 29.554688 31.355469 29.445312 31.355469 29.375 31.421875 L 22.898438 37.765625 C 22.621094 38.035156 22.175781 38.035156 21.898438 37.765625 L 12.773438 28.828125 C 12.496094 28.558594 12.496094 28.121094 12.773438 27.851562 L 14.796875 25.867188 C 15.070312 25.597656 15.519531 25.597656 15.796875 25.867188 L 22.273438 32.210938 C 22.34375 32.277344 22.453125 32.277344 22.523438 32.210938 L 29 25.867188 C 29.277344 25.597656 29.722656 25.597656 30 25.867188 L 36.476562 32.210938 C 36.546875 32.277344 36.65625 32.277344 36.726562 32.210938 L 43.203125 25.867188 C 43.480469 25.597656 43.929688 25.597656 44.203125 25.867188 Z M 44.203125 25.867188 "/>
</g>
</svg>
